<svg xmlns="http://www.w3.org/2000/svg" width="30.958" height="29.13" viewBox="0 0 30.958 29.13">
  <g id="Grupo_5928" data-name="Grupo 5928" transform="translate(-1174.999 -8716.344)">
    <g id="noun-online-chat-5690312" transform="translate(1183.208 8711.781)">
      <path id="Caminho_12786" data-name="Caminho 12786" d="M128.456,42.875H98.5a.5.5,0,0,0-.5.5V65.215a.5.5,0,0,0,.5.5h11.154v2.247a1.736,1.736,0,0,1-1.726,1.728h-1.616a.5.5,0,0,0-.5.5V71.5a.5.5,0,0,0,.5.5h14.336a.5.5,0,0,0,.5-.5V70.189a.5.5,0,0,0-.5-.5H119.03a1.736,1.736,0,0,1-1.728-1.727V65.714h11.154a.5.5,0,0,0,.5-.5V43.374a.5.5,0,0,0-.5-.5Zm-9.428,27.813h1.117v.319H106.807v-.319h1.118a2.737,2.737,0,0,0,2.51-1.675h3.834a.5.5,0,1,0,0-1h-3.623c0-.018,0-.033,0-.051V65.714H116.3v2.25a2.737,2.737,0,0,0,2.725,2.723Zm8.929-5.972H99V43.873h28.961V64.716Zm-13.53-.976a.5.5,0,0,1-.5.5H113.1a.5.5,0,0,1,0-1h.828A.5.5,0,0,1,114.427,63.739Zm-14.3-.975h26.687a.5.5,0,0,0,.5-.5V45.294a.5.5,0,0,0-.5-.5H100.132a.5.5,0,0,0-.5.5v16.97a.5.5,0,0,0,.5.5Zm.5-16.971H126.32V61.766H100.631Z" transform="translate(-106.206 -38.312)" fill="#001f5b"/>
    </g>
  </g>
</svg>
