<svg xmlns="http://www.w3.org/2000/svg" width="31" height="23.5" viewBox="0 0 31 23.5">
  <g id="Grupo_5930" data-name="Grupo 5930" transform="translate(-1177 -8712.999)">
    <path id="Caminho_12787" data-name="Caminho 12787" d="M112.969,178.706c3.662,0,5,1.581,5,5.5a.5.5,0,0,1-.5.5h-30a.5.5,0,0,1-.5-.5c0-3.918,1.338-5.5,5-5.5Zm0,1h-21c-2.913,0-3.9.991-3.993,4h28.986c-.093-3.009-1.08-4-3.993-4Zm-10-17.5v2.006c7.97.2,13,5.168,13,11.994a.5.5,0,0,1-.5.5h-26a.5.5,0,0,1-.5-.5c0-6.826,5.03-11.794,13-11.994v-2.006h-2.5a.5.5,0,0,1,0-1h6a.5.5,0,0,1,0,1Zm-.5,3c-7.513,0-12.247,4.357-12.49,10.5h24.98c-.243-6.143-4.976-10.5-12.49-10.5Z" transform="translate(1090.03 8551.793)" fill="#001f5b" fill-rule="evenodd"/>
  </g>
</svg>
