<svg xmlns="http://www.w3.org/2000/svg" width="31.651" height="26.459" viewBox="0 0 31.651 26.459">
  <g id="noun-gym-6147303" transform="translate(-2 -5.937)">
    <g id="Grupo_6093" data-name="Grupo 6093" transform="translate(2 5.937)">
      <path id="Caminho_16726" data-name="Caminho 16726" d="M249.022,167.8H248a1.686,1.686,0,0,0-1.686,1.686v.853h-.348a.96.96,0,0,0-.961.961v3.155a.961.961,0,0,0,.961.961h.348v.853A1.686,1.686,0,0,0,248,177.957h1.027v.038a1.5,1.5,0,0,0,.44,1.062,1.615,1.615,0,0,0,.123.11,1.619,1.619,0,0,0-.123.11,1.5,1.5,0,0,0-.44,1.062v.363H248a1.686,1.686,0,0,0-1.686,1.686v.853h-.348a.96.96,0,0,0-.961.961v3.154a.96.96,0,0,0,.961.961h.348v.853A1.686,1.686,0,0,0,248,190.856h1.027v.037a1.5,1.5,0,0,0,1.5,1.5h2.815a1.5,1.5,0,0,0,1.5-1.5h0v-3.657H266.81v3.658a1.5,1.5,0,0,0,1.5,1.5h2.815a1.5,1.5,0,0,0,1.5-1.5v-.037h1.027a1.686,1.686,0,0,0,1.686-1.686v-.853h.348a.96.96,0,0,0,.961-.961V184.2a.96.96,0,0,0-.961-.961h-.348v-.853a1.686,1.686,0,0,0-1.686-1.686H272.63v-.363a1.5,1.5,0,0,0-.44-1.062,1.613,1.613,0,0,0-.123-.11,1.61,1.61,0,0,0,.123-.11,1.5,1.5,0,0,0,.44-1.062v-.038h1.027a1.686,1.686,0,0,0,1.686-1.686v-.853h.348a.961.961,0,0,0,.961-.961V171.3a.96.96,0,0,0-.961-.961h-.348v-.853a1.686,1.686,0,0,0-1.686-1.686H272.63v-.363a1.5,1.5,0,0,0-1.5-1.5h-2.815a1.5,1.5,0,0,0-1.5,1.5v3.892H254.841V167.44a1.5,1.5,0,0,0-1.5-1.5h-2.815a1.5,1.5,0,0,0-1.5,1.5Zm18.448,23.09V180.339a.842.842,0,0,1,.843-.843h2.815a.842.842,0,0,1,.843.843v10.554a.843.843,0,0,1-.843.843h-2.815a.843.843,0,0,1-.843-.843Zm-13.288,0a.843.843,0,0,1-.843.843h-2.815a.843.843,0,0,1-.843-.843V180.339a.842.842,0,0,1,.843-.843h2.815a.842.842,0,0,1,.843.843Zm18.448-9.532V190.2h1.027a1.027,1.027,0,0,0,1.027-1.027v-6.782a1.027,1.027,0,0,0-1.027-1.027Zm-23.608,0H248a1.027,1.027,0,0,0-1.027,1.027v6.782A1.027,1.027,0,0,0,248,190.2h1.027Zm-2.713,2.539h-.348a.3.3,0,0,0-.3.3v3.155a.3.3,0,0,0,.3.3h.348Zm29.033,0v3.757h.348a.3.3,0,0,0,.3-.3V184.2a.3.3,0,0,0-.3-.3Zm-8.532.989H254.841v1.686H266.81Zm0-10.554H254.841v3.658h0a1.5,1.5,0,0,1-.44,1.062,1.615,1.615,0,0,1-.123.11,1.619,1.619,0,0,1,.123.11,1.5,1.5,0,0,1,.44,1.062v3.892H266.81v-3.893a1.5,1.5,0,0,1,.44-1.062,1.624,1.624,0,0,1,.123-.11,1.621,1.621,0,0,1-.123-.11,1.5,1.5,0,0,1-.44-1.062Zm.659,3.658V167.44a.843.843,0,0,1,.843-.843h2.815a.843.843,0,0,1,.843.843v10.554a.842.842,0,0,1-.843.843h-2.815a.842.842,0,0,1-.843-.843Zm-13.288,0a.842.842,0,0,1-.843.843h-2.815a.842.842,0,0,1-.843-.843V167.44a.843.843,0,0,1,.843-.843h2.815a.843.843,0,0,1,.843.843Zm18.448-9.532V177.3h1.027a1.027,1.027,0,0,0,1.027-1.027v-6.781a1.027,1.027,0,0,0-1.027-1.027Zm-23.608,0H248a1.027,1.027,0,0,0-1.027,1.027v6.781A1.027,1.027,0,0,0,248,177.3h1.027ZM246.309,171h-.348a.3.3,0,0,0-.3.3v3.155a.3.3,0,0,0,.3.3h.348Zm29.033,0v3.757h.348a.3.3,0,0,0,.3-.3V171.3a.3.3,0,0,0-.3-.3Zm-8.532.989H254.841v1.686H266.81Z" transform="translate(-245 -165.937)" fill="#011e5b" fill-rule="evenodd"/>
    </g>
  </g>
</svg>
