<svg xmlns="http://www.w3.org/2000/svg" width="30" height="30.171" viewBox="0 0 30 30.171">
  <g id="noun-suitcase-1114582" transform="translate(-246.959 -381.027)">
    <path id="Caminho_12803" data-name="Caminho 12803" d="M153.938,63.476h-6.084V61.893a2.843,2.843,0,0,0-2.84-2.84h-7.2a2.823,2.823,0,0,0-1.039.2,1.914,1.914,0,0,0-.478-1.887l-2.517-2.517a.386.386,0,0,0-.53,0l-2.185,2.185a.374.374,0,0,0,0,.53l2.517,2.517a1.9,1.9,0,0,0,1.7.528,2.816,2.816,0,0,0-.31,1.284v1.583h-5.513a2.766,2.766,0,0,0-2.763,2.762V82.153a2.766,2.766,0,0,0,2.763,2.762h24.475a2.765,2.765,0,0,0,2.762-2.762V66.239a2.765,2.765,0,0,0-2.762-2.763Zm-19.337.75h1.5V65.92a.75.75,0,1,1-1.5,0Zm1.125,3.14a1.5,1.5,0,0,0,1.125-1.447V64.226h9.128V65.92a1.5,1.5,0,0,0,1.125,1.447v16.8H135.726Zm11.753-.7a.751.751,0,0,1-.75-.75V64.226h1.5V65.92A.751.751,0,0,1,147.478,66.67Zm-13.365-7.119L131.862,57.3l1.655-1.655,2.251,2.251a1.17,1.17,0,0,1-1.655,1.655Zm1.612,2.342a2.092,2.092,0,0,1,2.09-2.09h7.2a2.093,2.093,0,0,1,2.09,2.09v1.583H135.725Zm-8.275,20.26V66.24a2.015,2.015,0,0,1,2.013-2.012h4.388v1.694a1.5,1.5,0,0,0,1.125,1.447v16.8h-5.514a2.015,2.015,0,0,1-2.012-2.013Zm28.5,0a2.015,2.015,0,0,1-2.012,2.012h-6.084v-16.8a1.5,1.5,0,0,0,1.125-1.447V64.227h4.959a2.015,2.015,0,0,1,2.012,2.012V82.153Z" transform="translate(120.259 326.283)" fill="#001f5b"/>
  </g>
</svg>
